{"asset":{"version":"2.0","generator":"Blockbench 5.0.4 glTF exporter"},"scenes":[{"nodes":[0,1,2],"name":"blockbench_export"}],"scene":0,"nodes":[{"translation":[0.55625,0,0],"name":"pyramid","mesh":0},{"translation":[-0.5625,0,0],"name":"pyramid","mesh":1},{"name":"cuboid","mesh":2}],"bufferViews":[{"buffer":0,"byteOffset":0,"byteLength":192,"target":34962,"byteStride":12},{"buffer":0,"byteOffset":192,"byteLength":192,"target":34962,"byteStride":12},{"buffer":0,"byteOffset":384,"byteLength":128,"target":34962,"byteStride":8},{"buffer":0,"byteOffset":512,"byteLength":36,"target":34963},{"buffer":0,"byteOffset":548,"byteLength":192,"target":34962,"byteStride":12},{"buffer":0,"byteOffset":740,"byteLength":192,"target":34962,"byteStride":12},{"buffer":0,"byteOffset":932,"byteLength":128,"target":34962,"byteStride":8},{"buffer":0,"byteOffset":1060,"byteLength":36,"target":34963},{"buffer":0,"byteOffset":1096,"byteLength":216,"target":34962,"byteStride":12},{"buffer":0,"byteOffset":1312,"byteLength":216,"target":34962,"byteStride":12},{"buffer":0,"byteOffset":1528,"byteLength":144,"target":34962,"byteStride":8},{"buffer":0,"byteOffset":1672,"byteLength":48,"target":34963}],"buffers":[{"byteLength":1720,"uri":"data:application/octet-stream;base64,"}],"accessors":[{"bufferView":0,"componentType":5126,"count":16,"max":[0.1875,0.5,0.5249999761581421],"min":[-0.1875,0,-0.5],"type":"VEC3"},{"bufferView":1,"componentType":5126,"count":16,"max":[0.936329185962677,0.898768424987793,0.9987523555755615],"min":[-0.9129416346549988,-1,-0.43842363357543945],"type":"VEC3"},{"bufferView":2,"componentType":5126,"count":16,"max":[0.8397818207740784,0.765625],"min":[0,0.06947863101959229],"type":"VEC2"},{"bufferView":3,"componentType":5123,"count":18,"max":[15],"min":[0],"type":"SCALAR"},{"bufferView":4,"componentType":5126,"count":16,"max":[0.1875,0.5,0.5062500238418579],"min":[-0.1875,0,-0.5],"type":"VEC3"},{"bufferView":5,"componentType":5126,"count":16,"max":[0.9215339422225952,0.8955368995666504,0.9999218583106995],"min":[-0.936329185962677,-1,-0.4449872672557831],"type":"VEC3"},{"bufferView":6,"componentType":5126,"count":16,"max":[0.6063908338546753,0.765625],"min":[0.09375,0],"type":"VEC2"},{"bufferView":7,"componentType":5123,"count":18,"max":[15],"min":[0],"type":"SCALAR"},{"bufferView":8,"componentType":5126,"count":18,"max":[0.5874999761581421,0.3125,0.5],"min":[-0.581250011920929,0,-0.5],"type":"VEC3"},{"bufferView":9,"componentType":5126,"count":18,"max":[0.9961937069892883,0.954479992389679,1],"min":[-0.9967154860496521,-1,-0.2982749938964844],"type":"VEC3"},{"bufferView":10,"componentType":5126,"count":18,"max":[0.796875,0.59375],"min":[0.0023437500931322575,0],"type":"VEC2"},{"bufferView":11,"componentType":5123,"count":24,"max":[17],"min":[0],"type":"SCALAR"}],"materials":[{"pbrMetallicRoughness":{"metallicFactor":0,"roughnessFactor":1,"baseColorTexture":{"index":0}},"alphaMode":"MASK","alphaCutoff":0.05,"doubleSided":true}],"textures":[{"sampler":0,"source":0,"name":"lift"}],"samplers":[{"magFilter":9728,"minFilter":9728,"wrapS":33071,"wrapT":33071}],"images":[{"mimeType":"image/png","uri":"data:image/png;base64,"}],"meshes":[{"primitives":[{"mode":4,"attributes":{"POSITION":0,"NORMAL":1,"TEXCOORD_0":2},"indices":3,"material":0}]},{"primitives":[{"mode":4,"attributes":{"POSITION":4,"NORMAL":5,"TEXCOORD_0":6},"indices":7,"material":0}]},{"primitives":[{"mode":4,"attributes":{"POSITION":8,"NORMAL":9,"TEXCOORD_0":10},"indices":11,"material":0}]}]}