{"asset":{"version":"2.0","generator":"Blockbench 5.0.4 glTF exporter"},"scenes":[{"nodes":[12],"name":"blockbench_export"}],"scene":0,"nodes":[{"translation":[0,2.2750000000000004,-0.0625],"name":"sphere","mesh":0},{"rotation":[0,-0.2630312144579748,0,0.964787323828813],"translation":[0.11249999999999999,2.375000000000001,-0.17500000000000002],"name":"sphere","mesh":1},{"rotation":[0,0.2630312144579748,0,0.964787323828813],"translation":[-0.12187500000000001,2.375000000000001,-0.17500000000000002],"name":"sphere","mesh":2},{"translation":[0,1.525,0],"name":"beveled_cuboid","mesh":3},{"rotation":[-0.08715574274765817,0,0,0.9961946980917455],"translation":[0,1.9687500000000009,0.03125],"name":"beveled_cuboid","mesh":4},{"translation":[0.4750000000000004,1.1187499999999995,0],"name":"beveled_cuboid","mesh":5},{"translation":[-0.46874999999999967,1.1187499999999995,0],"name":"beveled_cuboid","mesh":6},{"translation":[-0.23749999999999966,0.19374999999999942,-0.06875],"name":"beveled_cuboid","mesh":7},{"translation":[0.21875000000000033,0.2374999999999995,-0.06875],"name":"beveled_cuboid","mesh":8},{"translation":[0.21875,-0.59375,-0.18125000000000002],"name":"beveled_cuboid","mesh":9},{"translation":[-0.24375000000000002,-0.59375,-0.18125000000000002],"name":"beveled_cuboid","mesh":10},{"translation":[0,0.5750000000000006,-0.07499999999999996],"name":"beveled_cuboid","mesh":11},{"translation":[0,0.5,0],"name":"group","children":[0,1,2,3,4,5,6,7,8,9,10,11]}],"bufferViews":[{"buffer":0,"byteOffset":0,"byteLength":3168,"target":34962,"byteStride":12},{"buffer":0,"byteOffset":3168,"byteLength":3168,"target":34962,"byteStride":12},{"buffer":0,"byteOffset":6336,"byteLength":2112,"target":34962,"byteStride":8},{"buffer":0,"byteOffset":8448,"byteLength":720,"target":34963},{"buffer":0,"byteOffset":9168,"byteLength":3168,"target":34962,"byteStride":12},{"buffer":0,"byteOffset":12336,"byteLength":3168,"target":34962,"byteStride":12},{"buffer":0,"byteOffset":15504,"byteLength":2112,"target":34962,"byteStride":8},{"buffer":0,"byteOffset":17616,"byteLength":720,"target":34963},{"buffer":0,"byteOffset":18336,"byteLength":3168,"target":34962,"byteStride":12},{"buffer":0,"byteOffset":21504,"byteLength":3168,"target":34962,"byteStride":12},{"buffer":0,"byteOffset":24672,"byteLength":2112,"target":34962,"byteStride":8},{"buffer":0,"byteOffset":26784,"byteLength":720,"target":34963},{"buffer":0,"byteOffset":27504,"byteLength":2856,"target":34962,"byteStride":12},{"buffer":0,"byteOffset":30360,"byteLength":2856,"target":34962,"byteStride":12},{"buffer":0,"byteOffset":33216,"byteLength":1904,"target":34962,"byteStride":8},{"buffer":0,"byteOffset":35120,"byteLength":684,"target":34963},{"buffer":0,"byteOffset":35804,"byteLength":1152,"target":34962,"byteStride":12},{"buffer":0,"byteOffset":36956,"byteLength":1152,"target":34962,"byteStride":12},{"buffer":0,"byteOffset":38108,"byteLength":768,"target":34962,"byteStride":8},{"buffer":0,"byteOffset":38876,"byteLength":264,"target":34963},{"buffer":0,"byteOffset":39140,"byteLength":1152,"target":34962,"byteStride":12},{"buffer":0,"byteOffset":40292,"byteLength":1152,"target":34962,"byteStride":12},{"buffer":0,"byteOffset":41444,"byteLength":768,"target":34962,"byteStride":8},{"buffer":0,"byteOffset":42212,"byteLength":264,"target":34963},{"buffer":0,"byteOffset":42476,"byteLength":1152,"target":34962,"byteStride":12},{"buffer":0,"byteOffset":43628,"byteLength":1152,"target":34962,"byteStride":12},{"buffer":0,"byteOffset":44780,"byteLength":768,"target":34962,"byteStride":8},{"buffer":0,"byteOffset":45548,"byteLength":264,"target":34963},{"buffer":0,"byteOffset":45812,"byteLength":1152,"target":34962,"byteStride":12},{"buffer":0,"byteOffset":46964,"byteLength":1152,"target":34962,"byteStride":12},{"buffer":0,"byteOffset":48116,"byteLength":768,"target":34962,"byteStride":8},{"buffer":0,"byteOffset":48884,"byteLength":264,"target":34963},{"buffer":0,"byteOffset":49148,"byteLength":1152,"target":34962,"byteStride":12},{"buffer":0,"byteOffset":50300,"byteLength":1152,"target":34962,"byteStride":12},{"buffer":0,"byteOffset":51452,"byteLength":768,"target":34962,"byteStride":8},{"buffer":0,"byteOffset":52220,"byteLength":264,"target":34963},{"buffer":0,"byteOffset":52484,"byteLength":1152,"target":34962,"byteStride":12},{"buffer":0,"byteOffset":53636,"byteLength":1152,"target":34962,"byteStride":12},{"buffer":0,"byteOffset":54788,"byteLength":768,"target":34962,"byteStride":8},{"buffer":0,"byteOffset":55556,"byteLength":264,"target":34963},{"buffer":0,"byteOffset":55820,"byteLength":1152,"target":34962,"byteStride":12},{"buffer":0,"byteOffset":56972,"byteLength":1152,"target":34962,"byteStride":12},{"buffer":0,"byteOffset":58124,"byteLength":768,"target":34962,"byteStride":8},{"buffer":0,"byteOffset":58892,"byteLength":264,"target":34963},{"buffer":0,"byteOffset":59156,"byteLength":1152,"target":34962,"byteStride":12},{"buffer":0,"byteOffset":60308,"byteLength":1152,"target":34962,"byteStride":12},{"buffer":0,"byteOffset":61460,"byteLength":768,"target":34962,"byteStride":8},{"buffer":0,"byteOffset":62228,"byteLength":264,"target":34963}],"buffers":[{"byteLength":62492,"uri":"data:application/octet-stream;base64,"}],"accessors":[{"bufferView":0,"componentType":5126,"count":264,"max":[0.2562499940395355,0.25,0.23749999701976776],"min":[-0.2562499940395355,-0.25,-0.23749999701976776],"type":"VEC3"},{"bufferView":1,"componentType":5126,"count":264,"max":[0.9642921686172485,0.9674885272979736,0.9690957069396973],"min":[-0.9642921686172485,-0.987805187702179,-0.9972349405288696],"type":"VEC3"},{"bufferView":2,"componentType":5126,"count":264,"max":[0.6061038970947266,0.5546875],"min":[0.09375,0.0038830041885375977],"type":"VEC2"},{"bufferView":3,"componentType":5123,"count":360,"max":[263],"min":[0],"type":"SCALAR"},{"bufferView":4,"componentType":5126,"count":264,"max":[0.06875000149011612,0.0625,0.05000000074505806],"min":[-0.06875000149011612,-0.0625,-0.05000000074505806],"type":"VEC3"},{"bufferView":5,"componentType":5126,"count":264,"max":[0.9592026472091675,0.9715901613235474,0.9777876734733582],"min":[-0.9592026472091675,-0.9715901613235474,-0.9777876734733582],"type":"VEC3"},{"bufferView":6,"componentType":5126,"count":264,"max":[0.03349374979734421,0.032353103160858154],"min":[0,0],"type":"VEC2"},{"bufferView":7,"componentType":5123,"count":360,"max":[263],"min":[0],"type":"SCALAR"},{"bufferView":8,"componentType":5126,"count":264,"max":[0.06875000149011612,0.0625,0.05000000074505806],"min":[-0.06875000149011612,-0.0625,-0.05000000074505806],"type":"VEC3"},{"bufferView":9,"componentType":5126,"count":264,"max":[0.9592026472091675,0.9715901613235474,0.9777876734733582],"min":[-0.9592026472091675,-0.9715901613235474,-0.9777876734733582],"type":"VEC3"},{"bufferView":10,"componentType":5126,"count":264,"max":[0.03349374979734421,0.032353103160858154],"min":[0,0],"type":"VEC2"},{"bufferView":11,"componentType":5123,"count":360,"max":[263],"min":[0],"type":"SCALAR"},{"bufferView":12,"componentType":5126,"count":238,"max":[0.518750011920929,0.48124998807907104,0.25],"min":[-0.543749988079071,-0.5562499761581421,-0.4025000333786011],"type":"VEC3"},{"bufferView":13,"componentType":5126,"count":238,"max":[0.9978554248809814,1,1],"min":[-0.9790694713592529,-1,-0.9999616742134094],"type":"VEC3"},{"bufferView":14,"componentType":5126,"count":238,"max":[0.6015625,0.5703125],"min":[0.017679013311862946,0],"type":"VEC2"},{"bufferView":15,"componentType":5123,"count":342,"max":[237],"min":[0],"type":"SCALAR"},{"bufferView":16,"componentType":5126,"count":96,"max":[0.125,0.25,0.14374999701976776],"min":[-0.125,-0.18125000596046448,-0.14374999701976776],"type":"VEC3"},{"bufferView":17,"componentType":5126,"count":96,"max":[1,1,1],"min":[-1,-1,-1],"type":"VEC3"},{"bufferView":18,"componentType":5126,"count":96,"max":[0.583789050579071,0.6258116960525513],"min":[0,0],"type":"VEC2"},{"bufferView":19,"componentType":5123,"count":132,"max":[95],"min":[0],"type":"SCALAR"},{"bufferView":20,"componentType":5126,"count":96,"max":[0.125,0.875,0.125],"min":[-0.125,-0.375,-0.125],"type":"VEC3"},{"bufferView":21,"componentType":5126,"count":96,"max":[1,1,1],"min":[-1,-1,-1],"type":"VEC3"},{"bufferView":22,"componentType":5126,"count":96,"max":[0.5,0.726757824420929],"min":[0,0.0625],"type":"VEC2"},{"bufferView":23,"componentType":5123,"count":132,"max":[95],"min":[0],"type":"SCALAR"},{"bufferView":24,"componentType":5126,"count":96,"max":[0.125,0.875,0.125],"min":[-0.125,-0.375,-0.125],"type":"VEC3"},{"bufferView":25,"componentType":5126,"count":96,"max":[1,1,1],"min":[-1,-1,-1],"type":"VEC3"},{"bufferView":26,"componentType":5126,"count":96,"max":[0.5618695020675659,0.7197171449661255],"min":[0.0234375,0.015625],"type":"VEC2"},{"bufferView":27,"componentType":5123,"count":132,"max":[95],"min":[0],"type":"SCALAR"},{"bufferView":28,"componentType":5126,"count":96,"max":[0.1875,0.9624999761581421,0.25],"min":[-0.1875,-0.4625000059604645,-0.25],"type":"VEC3"},{"bufferView":29,"componentType":5126,"count":96,"max":[1,1,1],"min":[-1,-1,-1],"type":"VEC3"},{"bufferView":30,"componentType":5126,"count":96,"max":[0.46875,0.6331343650817871],"min":[0.0234375,0.09375],"type":"VEC2"},{"bufferView":31,"componentType":5123,"count":132,"max":[95],"min":[0],"type":"SCALAR"},{"bufferView":32,"componentType":5126,"count":96,"max":[0.1875,1.0125000476837158,0.25],"min":[-0.1875,-0.581250011920929,-0.25],"type":"VEC3"},{"bufferView":33,"componentType":5126,"count":96,"max":[1,1,1],"min":[-1,-1,-1],"type":"VEC3"},{"bufferView":34,"componentType":5126,"count":96,"max":[0.1328125,0.6298882961273193],"min":[0.001953125,0],"type":"VEC2"},{"bufferView":35,"componentType":5123,"count":132,"max":[95],"min":[0],"type":"SCALAR"},{"bufferView":36,"componentType":5126,"count":96,"max":[0.16875000298023224,0.46875,0.3125],"min":[-0.16875000298023224,0.125,-0.375],"type":"VEC3"},{"bufferView":37,"componentType":5126,"count":96,"max":[0.9968152642250061,0.9557868242263794,1],"min":[-0.9968152642250061,-1,-0.9957011938095093],"type":"VEC3"},{"bufferView":38,"componentType":5126,"count":96,"max":[0.5911773443222046,0.40625],"min":[0.1875,0.046875],"type":"VEC2"},{"bufferView":39,"componentType":5123,"count":132,"max":[95],"min":[0],"type":"SCALAR"},{"bufferView":40,"componentType":5126,"count":96,"max":[0.16875000298023224,0.46875,0.3125],"min":[-0.16875000298023224,0.125,-0.375],"type":"VEC3"},{"bufferView":41,"componentType":5126,"count":96,"max":[0.9968152642250061,0.9557868242263794,1],"min":[-0.9968152642250061,-1,-0.9957011938095093],"type":"VEC3"},{"bufferView":42,"componentType":5126,"count":96,"max":[0.5911773443222046,0.40625],"min":[0.1875,0.046875],"type":"VEC2"},{"bufferView":43,"componentType":5123,"count":132,"max":[95],"min":[0],"type":"SCALAR"},{"bufferView":44,"componentType":5126,"count":96,"max":[0.44999998807907104,0.574999988079071,0.38749998807907104],"min":[-0.44999998807907104,-0.07500000298023224,-0.33125001192092896],"type":"VEC3"},{"bufferView":45,"componentType":5126,"count":96,"max":[1,0.9697239398956299,1],"min":[-1,-1,-1],"type":"VEC3"},{"bufferView":46,"componentType":5126,"count":96,"max":[0.6171875,0.4375],"min":[0,0],"type":"VEC2"},{"bufferView":47,"componentType":5123,"count":132,"max":[95],"min":[0],"type":"SCALAR"}],"materials":[{"pbrMetallicRoughness":{"metallicFactor":0,"roughnessFactor":1,"baseColorTexture":{"index":0}},"alphaMode":"MASK","alphaCutoff":0.05,"doubleSided":true},{"pbrMetallicRoughness":{"metallicFactor":0,"roughnessFactor":1},"alphaMode":"MASK","alphaCutoff":0.05,"doubleSided":true}],"textures":[{"sampler":0,"source":0,"name":"coach"}],"samplers":[{"magFilter":9728,"minFilter":9728,"wrapS":33071,"wrapT":33071}],"images":[{"mimeType":"image/png","uri":"data:image/png;base64,"}],"meshes":[{"primitives":[{"mode":4,"attributes":{"POSITION":0,"NORMAL":1,"TEXCOORD_0":2},"indices":3,"material":0}]},{"primitives":[{"mode":4,"attributes":{"POSITION":4,"NORMAL":5,"TEXCOORD_0":6},"indices":7,"material":1}]},{"primitives":[{"mode":4,"attributes":{"POSITION":8,"NORMAL":9,"TEXCOORD_0":10},"indices":11,"material":1}]},{"primitives":[{"mode":4,"attributes":{"POSITION":12,"NORMAL":13,"TEXCOORD_0":14},"indices":15,"material":0}]},{"primitives":[{"mode":4,"attributes":{"POSITION":16,"NORMAL":17,"TEXCOORD_0":18},"indices":19,"material":0}]},{"primitives":[{"mode":4,"attributes":{"POSITION":20,"NORMAL":21,"TEXCOORD_0":22},"indices":23,"material":0}]},{"primitives":[{"mode":4,"attributes":{"POSITION":24,"NORMAL":25,"TEXCOORD_0":26},"indices":27,"material":0}]},{"primitives":[{"mode":4,"attributes":{"POSITION":28,"NORMAL":29,"TEXCOORD_0":30},"indices":31,"material":0}]},{"primitives":[{"mode":4,"attributes":{"POSITION":32,"NORMAL":33,"TEXCOORD_0":34},"indices":35,"material":0}]},{"primitives":[{"mode":4,"attributes":{"POSITION":36,"NORMAL":37,"TEXCOORD_0":38},"indices":39,"material":0}]},{"primitives":[{"mode":4,"attributes":{"POSITION":40,"NORMAL":41,"TEXCOORD_0":42},"indices":43,"material":0}]},{"primitives":[{"mode":4,"attributes":{"POSITION":44,"NORMAL":45,"TEXCOORD_0":46},"indices":47,"material":0}]}]}