{"asset":{"version":"2.0","generator":"Blockbench 5.0.4 glTF exporter"},"scenes":[{"nodes":[0],"name":"blockbench_export"}],"scene":0,"nodes":[{"name":"sphere","mesh":0}],"bufferViews":[{"buffer":0,"byteOffset":0,"byteLength":3168,"target":34962,"byteStride":12},{"buffer":0,"byteOffset":3168,"byteLength":3168,"target":34962,"byteStride":12},{"buffer":0,"byteOffset":6336,"byteLength":2112,"target":34962,"byteStride":8},{"buffer":0,"byteOffset":8448,"byteLength":720,"target":34963}],"buffers":[{"byteLength":9168,"uri":"data:application/octet-stream;base64,"}],"accessors":[{"bufferView":0,"componentType":5126,"count":264,"max":[0.5,0.5,0.5],"min":[-0.5,-0.5,-0.5],"type":"VEC3"},{"bufferView":1,"componentType":5126,"count":264,"max":[0.9659256339073181,0.9659256339073181,0.9659256339073181],"min":[-0.9659256339073181,-0.9659256339073181,-0.9659256339073181],"type":"VEC3"},{"bufferView":2,"componentType":5126,"count":264,"max":[0.707516074180603,0.6530441045761108],"min":[0.0011411465238779783,0],"type":"VEC2"},{"bufferView":3,"componentType":5123,"count":360,"max":[263],"min":[0],"type":"SCALAR"}],"materials":[{"pbrMetallicRoughness":{"metallicFactor":0,"roughnessFactor":1,"baseColorTexture":{"index":0}},"alphaMode":"MASK","alphaCutoff":0.05,"doubleSided":true}],"textures":[{"sampler":0,"source":0,"name":"texture"}],"samplers":[{"magFilter":9728,"minFilter":9728,"wrapS":33071,"wrapT":33071}],"images":[{"mimeType":"image/png","uri":"data:image/png;base64,"}],"meshes":[{"primitives":[{"mode":4,"attributes":{"POSITION":0,"NORMAL":1,"TEXCOORD_0":2},"indices":3,"material":0}]}]}